# xmcd
#
# Track frame offsets: 
#        183
#        14095
#        24890
#        39860
#        54620
#        67483
#        80033
#        93165
#        106148
#        119033
#        132285
#        144488
#        157583
#        169890
#        183758
#        196603
#        210630
#        220443
#        233263
#        245433
#        256463
#        270783
#        283315
#        303335
#
# Disc length: 4225 seconds
#
# Revision: 3
# Processed by: cddbd v1.5.2PL0 Copyright (c) Steve Scherf et al.
# Submitted via: ExactAudioCopyFreeDBPlugin 1.0
#
DISCID=4c107f18
DTITLE=Willie Dixon - A Tribute to Willie Dixon 1915-1992
DYEAR=1900
DGENRE=
TTITLE0=Robert Nighthawk - Black Angel Blues (Sweet Black Angel)
TTITLE1=The Big Three Trio - Violent Love
TTITLE2=Pain in My Heart
TTITLE3=Eddie Boyd - Third Degree
TTITLE4=Crazy for My Baby
TTITLE5=Muddy Waters - (I'm Your) Hoochie Coochie Man
TTITLE6=Howlin' Wolf - Evil
TTITLE7=Muddy Waters - I Just Want to Make Love to You
TTITLE8=Jimmy Witherspoon - When the Lights Go Out
TTITLE9=Lowell Fulson - Do Me Right
TTITLE10=Little Walter - My Babe
TTITLE11=Willie Mabon - Seventh Son
TTITLE12=Little Walter and His Jukes - Mellow Down Easy
TTITLE13=Walkin' the Blues
TTITLE14=Bo Diddley - Pretty Thing
TTITLE15=Lowell Fulson - Tollin' Bells
TTITLE16=29 Ways
TTITLE17=Howlin' Wolf - Back Door Man
TTITLE18=Otis Rush - You Know My Love
TTITLE19=Howlin' Wolf - Little Red Rooster
TTITLE20=Bo Diddley - You Can't Judge a Book by It's Cover
TTITLE21=Little Walter - Dead Presidents
TTITLE22=Weak Brain, Narrow Mind
TTITLE23=Koko Taylor - Wang Dang Doodle
EXTD=
EXTT0=
EXTT1=
EXTT2=
EXTT3=
EXTT4=
EXTT5=
EXTT6=
EXTT7=
EXTT8=
EXTT9=
EXTT10=
EXTT11=
EXTT12=
EXTT13=
EXTT14=
EXTT15=
EXTT16=
EXTT17=
EXTT18=
EXTT19=
EXTT20=
EXTT21=
EXTT22=
EXTT23=
PLAYORDER=
